<?xml version="1.0" encoding="UTF-8"?>
<svg xmlns="http://www.w3.org/2000/svg" xmlns:xlink="http://www.w3.org/1999/xlink" viewBox="0 0 332.75 214.81">
  <defs>
    <style>
      .cls-1 {
        fill: url(#linear-gradient);
      }

      .cls-2 {
        opacity: .3;
      }

      .cls-2, .cls-3 {
        fill: #9b8bd6;
        mix-blend-mode: multiply;
      }

      .cls-3 {
        opacity: .5;
      }

      .cls-4 {
        fill: url(#linear-gradient-3);
      }

      .cls-5 {
        fill: url(#linear-gradient-2);
      }

      .cls-6 {
        fill: #406fbb;
      }

      .cls-6, .cls-7, .cls-8, .cls-9, .cls-10 {
        fill-rule: evenodd;
      }

      .cls-7 {
        fill: #365cbb;
      }

      .cls-8 {
        fill: #90ffff;
      }

      .cls-9 {
        fill: #b7ffff;
      }

      .cls-10 {
        fill: #68b7e7;
      }

      .cls-11 {
        isolation: isolate;
      }
    </style>
    <linearGradient id="linear-gradient" x1="157.05" y1="-47.77" x2="233.06" y2="263.12" gradientUnits="userSpaceOnUse">
      <stop offset="0" stop-color="#6b9ee3"/>
      <stop offset="1" stop-color="#867ea8"/>
    </linearGradient>
    <linearGradient id="linear-gradient-2" x1="226.67" y1="224.5" x2="226.67" y2="-153.16" gradientUnits="userSpaceOnUse">
      <stop offset="0" stop-color="#628ccc"/>
      <stop offset="1" stop-color="#6253a1"/>
    </linearGradient>
    <linearGradient id="linear-gradient-3" x1="274.81" y1="25.84" x2="127.12" y2="189.31" gradientUnits="userSpaceOnUse">
      <stop offset="0" stop-color="#9abff1"/>
      <stop offset="1" stop-color="#4e4fbd"/>
    </linearGradient>
  </defs>
  <g class="cls-11">
    <g id="Laag_2" data-name="Laag 2">
      <g id="_ÎÓÈ_1" data-name="—ÎÓÈ_1">
        <path class="cls-10" d="m236.47,158.34c0,.26-.21.47-.47.47s-.47-.21-.47-.47.21-.47.47-.47.47.21.47.47Z"/>
        <path class="cls-8" d="m111.2,190.06c0,.26-.21.47-.47.47s-.47-.21-.47-.47.21-.47.47-.47.47.21.47.47Z"/>
        <path class="cls-6" d="m90.67,20.27c0,.26-.21.47-.47.47s-.47-.21-.47-.47.21-.47.47-.47.47.21.47.47Z"/>
        <path class="cls-6" d="m288.09,1.67c0,.26-.21.47-.47.47s-.47-.21-.47-.47.21-.47.47-.47.47.21.47.47Z"/>
        <path class="cls-6" d="m166.11,195.84c0,.26-.21.47-.47.47s-.47-.21-.47-.47.21-.47.47-.47.47.21.47.47Z"/>
        <path class="cls-6" d="m219.87,130.91c0,.26-.21.47-.47.47s-.47-.21-.47-.47.21-.47.47-.47.47.21.47.47Z"/>
        <path class="cls-6" d="m71.65,66.69c0,.26-.21.47-.47.47s-.47-.21-.47-.47.21-.47.47-.47.47.21.47.47Z"/>
        <path class="cls-6" d="m82.22.47c0,.26-.21.47-.47.47s-.47-.21-.47-.47.21-.47.47-.47.47.21.47.47Z"/>
        <path class="cls-6" d="m173.44,85.35c0,.26-.21.47-.47.47s-.47-.21-.47-.47.21-.47.47-.47.47.21.47.47Z"/>
        <path class="cls-6" d="m253.94,144.41c0,.26-.21.47-.47.47s-.47-.21-.47-.47.21-.47.47-.47.47.21.47.47Z"/>
        <path class="cls-6" d="m196.25,159.77c0,.26-.21.47-.47.47s-.47-.21-.47-.47.21-.47.47-.47.47.21.47.47Z"/>
        <path class="cls-9" d="m180.43,126.24c0,.26-.21.47-.47.47s-.47-.21-.47-.47.21-.47.47-.47.47.21.47.47Z"/>
        <path class="cls-8" d="m154.88,127.77c0,.26-.21.47-.47.47s-.47-.21-.47-.47.21-.47.47-.47.47.21.47.47Z"/>
        <path class="cls-8" d="m90.6,131.83c0,.26-.21.47-.47.47s-.47-.21-.47-.47.21-.47.47-.47.47.21.47.47Z"/>
        <path class="cls-8" d="m168.41,134.37c0,.26-.21.47-.47.47s-.47-.21-.47-.47.21-.47.47-.47.47.21.47.47Z"/>
        <path class="cls-6" d="m96.01,39.47c0,.26-.21.47-.47.47s-.47-.21-.47-.47.21-.47.47-.47.47.21.47.47Z"/>
        <path class="cls-7" d="m76.66,43.19c0,.26-.21.47-.47.47s-.47-.21-.47-.47.21-.47.47-.47.47.21.47.47Z"/>
        <path class="cls-7" d="m56.34,113.4c0,.26-.21.47-.47.47s-.47-.21-.47-.47.21-.47.47-.47.47.21.47.47Z"/>
        <path class="cls-6" d="m55.33,62.53c0,.26-.21.47-.47.47s-.47-.21-.47-.47.21-.47.47-.47.47.21.47.47Z"/>
        <path class="cls-6" d="m58.87,127.73c0,.26-.21.47-.47.47s-.47-.21-.47-.47.21-.47.47-.47.47.21.47.47Z"/>
        <path class="cls-6" d="m77.13,26.2c0,.26-.21.47-.47.47s-.47-.21-.47-.47.21-.47.47-.47.47.21.47.47Z"/>
        <path class="cls-9" d="m104.49,94.13c0,.26-.21.47-.47.47s-.47-.21-.47-.47.21-.47.47-.47.47.21.47.47Z"/>
        <path class="cls-8" d="m86.94,120.66c0,.26-.21.47-.47.47s-.47-.21-.47-.47.21-.47.47-.47.47.21.47.47Z"/>
        <path class="cls-8" d="m22.66,124.72c0,.26-.21.47-.47.47s-.47-.21-.47-.47.21-.47.47-.47.47.21.47.47Z"/>
        <path class="cls-8" d="m87,49.3c0,.26-.21.47-.47.47s-.47-.21-.47-.47.21-.47.47-.47.47.21.47.47Z"/>
        <path class="cls-8" d="m100.47,127.26c0,.26-.21.47-.47.47s-.47-.21-.47-.47.21-.47.47-.47.47.21.47.47Z"/>
        <path class="cls-8" d="m217.25,125.03c0,.26-.21.47-.47.47s-.47-.21-.47-.47.21-.47.47-.47.47.21.47.47Z"/>
        <path class="cls-6" d="m250.72,70.09c0,.26-.21.47-.47.47s-.47-.21-.47-.47.21-.47.47-.47.47.21.47.47Z"/>
        <polygon class="cls-1" points="129.1 119.21 145.14 101.77 147.94 101.67 165.19 100.31 192.71 61.43 201.4 66.01 273.13 145.71 158.91 171.13 129.1 119.21"/>
        <path class="cls-5" d="m142.51,135.57l22.4-16.27,9.01,1.6,9.96-1.24,22.32-13.63,58.5-51.47,68.05,142.32s-215.43,3.5-212.12,2.67c3.3-.82,21.88-63.99,21.88-63.99Z"/>
        <polygon class="cls-4" points="294.59 214.81 56.84 211.95 56.88 193.88 0 163.51 57.19 60.33 88.56 21.24 89.06 20.6 89.27 20.34 96.04 25.63 113.02 67.67 113.18 67.62 120.37 65.22 120.9 65.05 123.53 70.54 126.46 70.54 155.66 129.78 169.8 147.45 172.43 147.45 224.67 121.42 292.87 197.85 294.59 214.81"/>
        <path class="cls-3" d="m122.72,135.37l-1.5-9.9,5.11,3.99-10.23-48.85,2.59-2,4.43,4.21-2.76-17.6-.03-.22-7.15,2.61-.14.05-26.64,39.07-3.76-34.93,2.38-2.14,1.7-3.62,2.32,5.76-2.32-21.29,2.32-3.7,3.2,2.66-3.19-28.88-.51.63-31.37,39.1-24.65,43.67,24.41,58.77-.07,31.12,53.78-26.43,3.41,2.22-5.79-61.05,2.39-.67,12.07,27.42Zm-46.15-14.22l-15.53,22.78,1.28-69.09,2.78-1.08,3.15,10.98,9-8.09c-.2,11.64-.57,33.59-.68,44.5Z"/>
        <polygon class="cls-2" points="105.75 82.38 118.7 78.61 122.67 82.38 121.91 76.24 104.3 80.5 86.86 106.09 69.14 133.89 62.32 154.51 51.14 143.95 45.89 180.46 71.12 168.11 110.66 167.45 114.07 169.3 113.32 164.49 71.39 158.58 73.57 147.49 80.12 143.35 82.09 138.11 74.87 140.4 86.32 111.65 108.27 108.84 110.66 107.95 122.46 134.78 121.22 125.47 118.97 124.51 111.61 103.59 95.39 102.26 105.75 82.38"/>
        <polygon class="cls-2" points="89.05 46.83 68.46 50.52 91.61 44.45 92.25 49.49 89.05 46.83"/>
        <polygon class="cls-2" points="86.73 66.04 54.62 71.14 54.62 67.6 86.73 57.54 88.97 71.14 86.73 66.04"/>
        <polygon class="cls-2" points="76.69 111.92 80.12 73.51 66.69 75.65 77.25 76.24 76.69 111.92"/>
      </g>
    </g>
  </g>
</svg>