<?xml version="1.0" encoding="UTF-8"?>
<svg id="Laag_2" data-name="Laag 2" xmlns="http://www.w3.org/2000/svg" viewBox="0 0 55.52 51.78">
  <defs>
    <style>
      .cls-1 {
        fill: #831e11;
      }
    </style>
  </defs>
  <g id="Laag_1-2" data-name="Laag 1">
    <g>
      <path class="cls-1" d="m4.89,3.32l-.23.13.04.91-.5.2v.52l-.73-.39v.13l-3.4-.13v-1.04h.31v-.33H.04v-1.11h.15v-.59l-.19-.06V.46h4.32v.78l.5-.2v1.04l-.27.13v.26l.31-.26.04,1.11Zm38.58-.59l2.1.2-.04,1.17-.46-.06-.04,1.04-8.37-.39v.39l-29.44-.13v-1.76l2.18.06-3.14-.59.08-1.17,1.38.13.04-.85,4.7.2.04-.52,30.97.33.04.33,1.64-.06.04,1.17-1.72.52Zm12.04-.26v1.43h-.11v1.5h-5.74l-1.61.59v-.91l-.65.07v-1.5h.15v-.72h-.04V0l7.84.07.04,1.43-.31.2v.78h.42Z"/>
      <path class="cls-1" d="m53.02,21.52l-.12.18,2.17,1.14-.48.9-1.26-.66-.42.72-3.01-1.74-.3.42-4.27-3.07-.06.06L26.38,7.45l-17.32,13.59,4.09,5.71,14.49-13.47,1.74,1.86-1.14.96.36.36.24-.24-.12-.06.66-.9.18.18.6-.72,3.37,2.95.24-.3,12.63,9.38-.66.96,1.86,1.62-.72.84,1.02.96-18.04,20.63-1.92-1.68,1.14-1.2-.36-.3-1.5,1.62-1.08-.96-.18.18-1.2-1.08-.36.36-1.38-1.98-.12.06-7.7-8.24.78-.72.66.78.24-.24-.78-.78.24-.3-.54-.48,8.06-9.2,1.8-2.95.66.54.84-1.02,1.02.84-.24.3.18.18.24-.36.42.3.54-1.02,7.82,4.39-.72,1.38-.9.42.42.18-.36.66.42.36-6.32,8-1.26-.84-.18-1.02-.36.36-1.44-1.08,4.45-6.68-2.23-.96-7.94,9.02,6.92,7.34,5.35-6.07.36.3,9.26-11.61-.6-.54-.36.42-12.21-9.32-5.35,4.99-.36-.36-10.77,11.13-1.38-1.32-.24.3-1.74-1.86.3-.3-1.92-2.71.42-.3-3.73-4.21-.3.24-1.56-1.98,1.44-1.08-.3-.36-1.86,1.44-1.56-1.98,9.74-7.64.3.42L24.33,1.68l1.2,1.38.36-.24.18-.24,26.52,16.78-.36.6,3.13,1.74-.54.84-1.8-1.02Z"/>
    </g>
  </g>
</svg>