<?xml version="1.0" encoding="UTF-8"?>
<svg xmlns="http://www.w3.org/2000/svg" xmlns:xlink="http://www.w3.org/1999/xlink" viewBox="0 0 97.77 97.77">
  <defs>
    <style>
      .cls-1 {
        fill: url(#_ÂÁ_Ï_ÌÌ_È_ËÂÌÚ_558);
      }

      .cls-1, .cls-2, .cls-3, .cls-4 {
        mix-blend-mode: screen;
      }

      .cls-2 {
        fill: url(#_ÂÁ_Ï_ÌÌ_È_ËÂÌÚ_223);
      }

      .cls-3 {
        fill: url(#_ÂÁ_Ï_ÌÌ_È_ËÂÌÚ_207);
      }

      .cls-4 {
        fill: url(#_ÂÁ_Ï_ÌÌ_È_ËÂÌÚ_18);
      }

      .cls-5 {
        opacity: .2;
      }

      .cls-6 {
        fill: #625eab;
      }

      .cls-6, .cls-7, .cls-8 {
        fill-rule: evenodd;
      }

      .cls-7 {
        fill: #fff;
      }

      .cls-8 {
        fill: #68b7e7;
      }

      .cls-9 {
        isolation: isolate;
      }
    </style>
    <radialGradient id="_ÂÁ_Ï_ÌÌ_È_ËÂÌÚ_18" data-name="¡ÂÁ˚ÏˇÌÌ˚È „‡‰ËÂÌÚ 18" cx="-1707.57" cy="-123.03" fx="-1707.57" fy="-123.03" r="14.07" gradientTransform="translate(4138.22 341.52) scale(2.39 2.37)" gradientUnits="userSpaceOnUse">
      <stop offset="0" stop-color="#5d2798"/>
      <stop offset=".16" stop-color="#5a2593"/>
      <stop offset=".32" stop-color="#522287"/>
      <stop offset=".49" stop-color="#461d72"/>
      <stop offset=".65" stop-color="#341655"/>
      <stop offset=".82" stop-color="#1d0c30"/>
      <stop offset=".99" stop-color="#020003"/>
      <stop offset="1" stop-color="#000"/>
    </radialGradient>
    <radialGradient id="_ÂÁ_Ï_ÌÌ_È_ËÂÌÚ_558" data-name="¡ÂÁ˚ÏˇÌÌ˚È „‡‰ËÂÌÚ 558" cx="-1707.27" cy="-123.57" fx="-1707.27" fy="-123.57" r="12.01" gradientTransform="translate(4137.14 340.88) scale(2.39 2.37)" gradientUnits="userSpaceOnUse">
      <stop offset="0" stop-color="#213a9f"/>
      <stop offset=".16" stop-color="#20389a"/>
      <stop offset=".31" stop-color="#1d348e"/>
      <stop offset=".48" stop-color="#192c7a"/>
      <stop offset=".64" stop-color="#13225d"/>
      <stop offset=".8" stop-color="#0b1438"/>
      <stop offset=".96" stop-color="#02040c"/>
      <stop offset="1" stop-color="#000"/>
    </radialGradient>
    <radialGradient id="_ÂÁ_Ï_ÌÌ_È_ËÂÌÚ_223" data-name="¡ÂÁ˚ÏˇÌÌ˚È „‡‰ËÂÌÚ 223" cx="-1707.79" cy="-123.53" fx="-1707.79" fy="-123.53" r="20.51" gradientTransform="translate(4137.54 342.12) scale(2.39 2.37)" gradientUnits="userSpaceOnUse">
      <stop offset="0" stop-color="#2f54bd"/>
      <stop offset="1" stop-color="#000"/>
    </radialGradient>
    <radialGradient id="_ÂÁ_Ï_ÌÌ_È_ËÂÌÚ_207" data-name="¡ÂÁ˚ÏˇÌÌ˚È „‡‰ËÂÌÚ 207" cx="-1707.79" cy="-123.53" fx="-1707.79" fy="-123.53" r="13.98" gradientTransform="translate(4137.52 342.38) scale(2.39 2.37)" gradientUnits="userSpaceOnUse">
      <stop offset="0" stop-color="#2f54bd"/>
      <stop offset=".13" stop-color="#2a4cab"/>
      <stop offset=".39" stop-color="#1f387e"/>
      <stop offset=".75" stop-color="#0d1837"/>
      <stop offset="1" stop-color="#000"/>
    </radialGradient>
  </defs>
  <g class="cls-9">
    <g id="Laag_2" data-name="Laag 2">
      <g id="_ÎÓÈ_1" data-name="—ÎÓÈ_1">
        <path class="cls-8" d="m51.88,63.07c0,.26-.21.47-.47.47s-.47-.21-.47-.47.21-.47.47-.47.47.21.47.47Z"/>
        <ellipse class="cls-4" cx="50.1" cy="49.35" rx="33.69" ry="33.41" transform="translate(-20.22 49.89) rotate(-45)"/>
        <ellipse class="cls-1" cx="49.71" cy="47.94" rx="28.74" ry="28.5" transform="translate(-19.34 49.18) rotate(-44.99)"/>
        <path class="cls-7" d="m71.55,48.21c0,11.95-9.69,21.64-21.64,21.64-10.16,0-18.68-7-21.01-16.43-.41-1.67-.63-3.41-.63-5.2,0-.79.04-1.58.13-2.35,1.17-10.85,10.35-19.29,21.51-19.29,11.95,0,21.64,9.69,21.64,21.64Z"/>
        <g class="cls-5">
          <path class="cls-6" d="m44.45,62.84c.27.58.45,1.09.92,1.57.5.52.9.62,1.55.81.38.11.46.24.94.24.32,0,.76-.08,1.06-.01.69.16,1.05.76,1.82.81.73.04,1.2-.2,1.83-.4.59-.18,1.29-.44,1.84-.65.6-.23,1.14-.39,1.77-.59.67-.21,1.01-.66,1.85-.43.05.31-.02.81.36.96.26.11.7-.17.98-.28.73-.28,1.4-.44,2.1-.73.34-.14.58-.13.92-.39.33-.24.68-.43,1.02-.65.63-.42,1.25-.88,1.88-1.31,1.21-.82,1.99-1.95,2.73-3.15.39-.63.61-1.32.85-2.04.3-.88.2-1.13-.39-1.85-1.06.44-1.48-.21-1.19-1.35.26-.99.37-2.31.15-3.35-.04-.18-.18-.31-.21-.58-.03-.29.02-.5-.05-.79-.12-.48-.21-.8-.2-1.31,0-.51.07-1.08-.06-1.57-.08-.31-.19-.45-.21-.79-.02-.35.04-.65-.05-.99-.25-.87-1.05-1.12-1.78-1.37-.49-.17-.74-.34-1.05,0-.34.36-.25.85-.26,1.31,0,.88.56,1.65,1.05,2.36.22.32.6.62.54,1.06-.03.24-.33.27-.31.52.02.29.34.38.49.58,1.25,1.63-1.11,3.07-2.23,3.94-.64.49-1.6.75-1.85,1.57-.26.88.34,1.61.66,2.36.33.78.62,2.16.14,2.89-.21.31-.61.5-.92.65-.46.22-.63.5-1.04.79-.66.48-1.48.64-2.3.59-.52-.03-.9-.24-1.31-.53-.32-.22-.74-.62-1.11-.73-.27-.08-.46-.02-.73-.05-.37-.05-.44-.2-.76-.28-.56-.14-.95.25-1.39.47-.37.19-.81.46-1.26.34-.43-.11-.94-.39-1.35-.48-1-.21-2.62-.28-3.42.4-.4.34-.55.82-.91,1.18-.34.34-1.01.44-1.12,1.24Z"/>
          <path class="cls-6" d="m64.36,40.04c-.96.02-1.84-.7-2.63-1.25-.64-.45-1.32-1.15-1.63-1.83-.09-.21-.12-.38-.2-.59-.02-.05-.25-.67-.25-.69,0-.37.31-.8.58-1.08.78-.81,1.98-.23,2.76.26.74.46,1.46.98,2.08,1.57.3.29.72.55.93.91.28.48.2,1.06.19,1.64-.01.89,1.15,1.91-.26,2.1-.55.08-2.24-.39-2.37-1.05h.79Z"/>
          <path class="cls-6" d="m47.07,68.08c-.24.26-.52.08-.79,0-.26-.08-.49-.13-.78-.13-.58,0-1.09,0-1.64-.13-.52-.13-1.01-.2-1.51-.33-.2-.05-.39-.16-.58-.2-.12-.03-.26.02-.39,0-.06-.01-.06-.08-.11-.09-.1-.02-.2,0-.3-.03-.5-.09-.96-.24-1.41-.37-.21-.06-.4-.07-.59-.19-.2-.12-.48-.26-.66-.39-.71-.52-1.48-.96-2.13-1.61-.61-.61-1.23-1.17-1.87-1.74-.15-.13-.27-.31-.42-.43-.17-.13-.33-.2-.49-.36-.33-.34-.59-.7-.85-1.08-.52-.75-1.18-1.36-1.59-2.18-.2-.4-.37-.78-.61-1.16-.15-.24-.29-.53-.4-.79-.08-.2-.24-.43-.29-.62-.08-.28-.08-.55-.16-.83-.03-.12-.11-.2-.14-.32-.04-.15.04-.32.01-.47-.03-.13-.11-.19-.14-.32-.04-.15.04-.32.01-.47-.03-.13-.11-.19-.14-.32-.04-.17.05-.37.01-.54-.03-.12-.11-.18-.14-.32-.03-.14,0-.32,0-.46,0-.34-.12-.6-.13-.92-.02-.29-.06-.7,0-.99.03-.13.11-.19.14-.32.04-.17-.04-.35.02-.52.35-.09.24.66.24.84,0,.34.14.52.13.85,0,.41.16.46.4.76.1.13.34.38.39.55.03.11.03.29.06.4.03.14.07.23.07.39,0,.32-.02.48.23.69.17.14.47.32.68.37.3.07.56.06.86.12.14.03.19.11.32.14.17.04.34-.06.5.02.15.08.35.38.39.53.08.28.03.51-.1.76-.05.09-.08.18-.13.26-.06.1-.18.19-.24.29-.25.45.11,1.19.21,1.58.04.15.26.6.14.74-.12.14-.87.02-1.01-.06-.08.17.07.48.12.66.06.21.16.5.28.7.24.39.67.75,1.07.97.27.14.43.21.48-.14.02-.16-.02-.25.06-.4.06-.11.17-.12.21-.25.04-.14-.05-.32-.01-.47.03-.11.1-.18.12-.27.07-.31-.05-.66,0-.97.11-.63.57-.91,1.12-1.05.56-.14,1.11-.29,1.63-.52.59-.26,1.23-.36,1.84-.16.5.16.9.46,1.36.7.21.11.4.16.61.24.24.09.49.18.73.25.43.12.93.2,1.33.43.37.22.88.52,1.15.88.25.35.5,1.06.31,1.5-.14.33-.64.62-.87.89-.4.47-.3.79,0,1.27.11.18.3.41.35.6.07.26.03.64.01.91-.01.25-.09.42-.23.62-.13.19-.43.32-.53.51-.09.18,0,.27.07.4.02.04.09.05.11.09.05.09.02.18.06.27.13.3.39.25.66.32.28.07.52.04.79-.06.16-.06.21-.11.39-.14.19-.03.28.07.43.1.32.07.51-.15.83-.17.26-.01.42.1.62.3.17.17.4.44.37.69-.03.26-.35.42-.53.65Z"/>
          <path class="cls-6" d="m44.58,58.25c.08-.05.15-.08.23-.11.21.24.43.48.69.64.38.24.57.09.66-.32.04-.21-.07-.34-.11-.49-.04-.17,0-.36-.19-.47-.26-.15-1-.07-.89.37l-.39.39Z"/>
          <path class="cls-6" d="m32,41.35c-.06.1-.14.14-.24.12-.06-.22-.05-.6,0-.83.02-.12.1-.18.12-.34.02-.13,0-.24.03-.37.04-.16.17-.42.2-.58.05-.25.06-.39.16-.62.09-.21.15-.49.24-.73.09-.22.19-.38.31-.58.24-.4.44-.78.69-1.18.44-.71.93-1.41,1.58-1.96.22-.19.48-.33.71-.5.08-.06.14-.15.22-.2.08-.05.2-.07.27-.12.2-.15.79-.75,1.06-.6-.18.49-.5.97-.74,1.45-.27.55-.78.53-1.18.92-.63.61.42.87.78,1.11.36.23.36.57.36.96,0,.36.03.65.13.98.04.14.11.31.14.46,0,.09,0,.18-.01.27,0,.07.05.12.11.15.08.37-.07.6-.2.92-.12.31-.2.62-.46.85-.26.24-.54.16-.88.16-.22,0-.32-.05-.52-.1-.13-.03-.32-.11-.42-.13-.16-.03-.31-.03-.47-.06-.16-.03-.17-.13-.39-.07-.23.06-.44.32-.68.37-.33.07-.71-.08-1.03.02,0,.04-.01.07.11.24Z"/>
        </g>
        <ellipse class="cls-2" cx="48.89" cy="48.89" rx="49.09" ry="48.68" transform="translate(-20.25 48.89) rotate(-45)"/>
        <ellipse class="cls-3" cx="48.89" cy="48.89" rx="33.47" ry="33.18" transform="translate(-20.25 48.89) rotate(-45)"/>
      </g>
    </g>
  </g>
</svg>