<?xml version="1.0" encoding="UTF-8"?>
<svg id="Laag_2" data-name="Laag 2" xmlns="http://www.w3.org/2000/svg" viewBox="0 0 306.96 233.22">
  <defs>
    <style>
      .cls-1, .cls-2 {
        fill: #90ffff;
      }

      .cls-3, .cls-4 {
        fill: #365cbb;
      }

      .cls-5 {
        fill: #406fbb;
      }

      .cls-5, .cls-4, .cls-2, .cls-6, .cls-7 {
        fill-rule: evenodd;
      }

      .cls-6 {
        fill: #b7ffff;
      }

      .cls-7 {
        fill: #68b7e7;
      }
    </style>
  </defs>
  <g id="_ÎÓÈ_1" data-name="—ÎÓÈ_1">
    <path class="cls-7" d="m144.23,38.2c0,.26-.21.47-.47.47s-.47-.21-.47-.47.21-.47.47-.47.47.21.47.47Z"/>
    <path class="cls-7" d="m201.94,113.18c0,.26-.21.47-.47.47s-.47-.21-.47-.47.21-.47.47-.47.47.21.47.47Z"/>
    <path class="cls-7" d="m223.12,195.26c0,.26-.21.47-.47.47s-.47-.21-.47-.47.21-.47.47-.47.47.21.47.47Z"/>
    <path class="cls-5" d="m172.62,94.11c0,.26-.21.47-.47.47s-.47-.21-.47-.47.21-.47.47-.47.47.21.47.47Z"/>
    <path class="cls-5" d="m150.6,83.5c0,.26-.21.47-.47.47s-.47-.21-.47-.47.21-.47.47-.47.47.21.47.47Z"/>
    <path class="cls-4" d="m123.25,62.22c0,.26-.21.47-.47.47s-.47-.21-.47-.47.21-.47.47-.47.47.21.47.47Z"/>
    <circle class="cls-3" cx="94.62" cy="27.38" r=".47"/>
    <path class="cls-4" d="m150.13,11.46c0,.26-.21.47-.47.47s-.47-.21-.47-.47.21-.47.47-.47.47.21.47.47Z"/>
    <path class="cls-4" d="m179.73,93.65c0,.26-.21.47-.47.47s-.47-.21-.47-.47.21-.47.47-.47.47.21.47.47Z"/>
    <circle class="cls-3" cx="183.12" cy="7.57" r=".47"/>
    <path class="cls-2" d="m97.85,226.98c0,.26-.21.47-.47.47s-.47-.21-.47-.47.21-.47.47-.47.47.21.47.47Z"/>
    <path class="cls-5" d="m200.28,17.76c0,.26-.21.47-.47.47s-.47-.21-.47-.47.21-.47.47-.47.47.21.47.47Z"/>
    <path class="cls-5" d="m196.26,79.52c0,.26-.21.47-.47.47s-.47-.21-.47-.47.21-.47.47-.47.47.21.47.47Z"/>
    <path class="cls-5" d="m77.32,57.19c0,.26-.21.47-.47.47s-.47-.21-.47-.47.21-.47.47-.47.47.21.47.47Z"/>
    <path class="cls-5" d="m274.74,38.59c0,.26-.21.47-.47.47s-.47-.21-.47-.47.21-.47.47-.47.47.21.47.47Z"/>
    <path class="cls-5" d="m101.92,81.56c0,.26-.21.47-.47.47s-.47-.21-.47-.47.21-.47.47-.47.47.21.47.47Z"/>
    <path class="cls-5" d="m152.76,232.76c0,.26-.21.47-.47.47s-.47-.21-.47-.47.21-.47.47-.47.47.21.47.47Z"/>
    <path class="cls-5" d="m306.96,32.59c0,.26-.21.47-.47.47s-.47-.21-.47-.47.21-.47.47-.47.47.21.47.47Z"/>
    <path class="cls-5" d="m108.02,24.11c0,.26-.21.47-.47.47s-.47-.21-.47-.47.21-.47.47-.47.47.21.47.47Z"/>
    <path class="cls-5" d="m206.52,167.84c0,.26-.21.47-.47.47s-.47-.21-.47-.47.21-.47.47-.47.47.21.47.47Z"/>
    <path class="cls-5" d="m58.3,103.62c0,.26-.21.47-.47.47s-.47-.21-.47-.47.21-.47.47-.47.47.21.47.47Z"/>
    <path class="cls-5" d="m68.87,37.39c0,.26-.21.47-.47.47s-.47-.21-.47-.47.21-.47.47-.47.47.21.47.47Z"/>
    <path class="cls-5" d="m160.09,122.27c0,.26-.21.47-.47.47s-.47-.21-.47-.47.21-.47.47-.47.47.21.47.47Z"/>
    <path class="cls-5" d="m123.72,45.23c0,.26-.21.47-.47.47s-.47-.21-.47-.47.21-.47.47-.47.47.21.47.47Z"/>
    <path class="cls-5" d="m240.59,181.33c0,.26-.21.47-.47.47s-.47-.21-.47-.47.21-.47.47-.47.47.21.47.47Z"/>
    <path class="cls-7" d="m205.68,47.1c0,.26-.21.47-.47.47s-.47-.21-.47-.47.21-.47.47-.47.47.21.47.47Z"/>
    <path class="cls-5" d="m228.52,50.97c0,.26-.21.47-.47.47s-.47-.21-.47-.47.21-.47.47-.47.47.21.47.47Z"/>
    <path class="cls-5" d="m182.9,196.7c0,.26-.21.47-.47.47s-.47-.21-.47-.47.21-.47.47-.47.47.21.47.47Z"/>
    <path class="cls-2" d="m87.67,64.9c0,.26-.21.47-.47.47s-.47-.21-.47-.47.21-.47.47-.47.47.21.47.47Z"/>
    <circle class="cls-1" cx="130.69" cy="70.52" r=".47"/>
    <path class="cls-2" d="m126.48,11.92c0,.26-.21.47-.47.47s-.47-.21-.47-.47.21-.47.47-.47.47.21.47.47Z"/>
    <path class="cls-2" d="m55.9,72.09c0,.26-.21.47-.47.47s-.47-.21-.47-.47.21-.47.47-.47.47.21.47.47Z"/>
    <path class="cls-6" d="m167.08,163.16c0,.26-.21.47-.47.47s-.47-.21-.47-.47.21-.47.47-.47.47.21.47.47Z"/>
    <path class="cls-2" d="m139.81,28.84c0,.26-.21.47-.47.47s-.47-.21-.47-.47.21-.47.47-.47.47.21.47.47Z"/>
    <path class="cls-2" d="m228.05,92.54c0,.26-.21.47-.47.47s-.47-.21-.47-.47.21-.47.47-.47.47.21.47.47Z"/>
    <path class="cls-2" d="m141.53,164.69c0,.26-.21.47-.47.47s-.47-.21-.47-.47.21-.47.47-.47.47.21.47.47Z"/>
    <path class="cls-2" d="m77.25,168.75c0,.26-.21.47-.47.47s-.47-.21-.47-.47.21-.47.47-.47.47.21.47.47Z"/>
    <path class="cls-2" d="m227.58,4.87c0,.26-.21.47-.47.47s-.47-.21-.47-.47.21-.47.47-.47.47.21.47.47Z"/>
    <path class="cls-2" d="m196,38.18c0,.26-.21.47-.47.47s-.47-.21-.47-.47.21-.47.47-.47.47.21.47.47Z"/>
    <path class="cls-2" d="m180.2,64.9c0,.26-.21.47-.47.47s-.47-.21-.47-.47.21-.47.47-.47.47.21.47.47Z"/>
    <path class="cls-2" d="m132.08,65.05c0,.26-.21.47-.47.47s-.47-.21-.47-.47.21-.47.47-.47.47.21.47.47Z"/>
    <path class="cls-2" d="m155.06,171.29c0,.26-.21.47-.47.47s-.47-.21-.47-.47.21-.47.47-.47.47.21.47.47Z"/>
    <path class="cls-7" d="m134,106.07c0,.26-.21.47-.47.47s-.47-.21-.47-.47.21-.47.47-.47.47.21.47.47Z"/>
    <path class="cls-5" d="m104.68,87.01c0,.26-.21.47-.47.47s-.47-.21-.47-.47.21-.47.47-.47.47.21.47.47Z"/>
    <path class="cls-5" d="m82.66,76.39c0,.26-.21.47-.47.47s-.47-.21-.47-.47.21-.47.47-.47.47.21.47.47Z"/>
    <path class="cls-4" d="m63.31,80.11c0,.26-.21.47-.47.47s-.47-.21-.47-.47.21-.47.47-.47.47.21.47.47Z"/>
    <path class="cls-4" d="m35.15,45.28c0,.26-.21.47-.47.47s-.47-.21-.47-.47.21-.47.47-.47.47.21.47.47Z"/>
    <path class="cls-4" d="m82.2,4.35c0,.26-.21.47-.47.47s-.47-.21-.47-.47.21-.47.47-.47.47.21.47.47Z"/>
    <path class="cls-4" d="m42.99,150.32c0,.26-.21.47-.47.47s-.47-.21-.47-.47.21-.47.47-.47.47.21.47.47Z"/>
    <path class="cls-4" d="m111.8,86.54c0,.26-.21.47-.47.47s-.47-.21-.47-.47.21-.47.47-.47.47.21.47.47Z"/>
    <path class="cls-4" d="m115.65.47c0,.26-.21.47-.47.47s-.47-.21-.47-.47.21-.47.47-.47.47.21.47.47Z"/>
    <path class="cls-5" d="m17.39,75.09c0,.26-.21.47-.47.47s-.47-.21-.47-.47.21-.47.47-.47.47.21.47.47Z"/>
    <path class="cls-5" d="m41.98,99.45c0,.26-.21.47-.47.47s-.47-.21-.47-.47.21-.47.47-.47.47.21.47.47Z"/>
    <path class="cls-5" d="m48.08,42c0,.26-.21.47-.47.47s-.47-.21-.47-.47.21-.47.47-.47.47.21.47.47Z"/>
    <path class="cls-5" d="m45.52,164.65c0,.26-.21.47-.47.47s-.47-.21-.47-.47.21-.47.47-.47.47.21.47.47Z"/>
    <path class="cls-5" d="m.93,30.28c0,.26-.21.47-.47.47s-.47-.21-.47-.47.21-.47.47-.47.47.21.47.47Z"/>
    <path class="cls-5" d="m63.78,63.13c0,.26-.21.47-.47.47s-.47-.21-.47-.47.21-.47.47-.47.47.21.47.47Z"/>
    <path class="cls-2" d="m27.73,82.79c0,.26-.21.47-.47.47s-.47-.21-.47-.47.21-.47.47-.47.47.21.47.47Z"/>
    <path class="cls-2" d="m66.55,29.82c0,.26-.21.47-.47.47s-.47-.21-.47-.47.21-.47.47-.47.47.21.47.47Z"/>
    <path class="cls-6" d="m91.14,131.05c0,.26-.21.47-.47.47s-.47-.21-.47-.47.21-.47.47-.47.47.21.47.47Z"/>
    <path class="cls-2" d="m73.6,157.58c0,.26-.21.47-.47.47s-.47-.21-.47-.47.21-.47.47-.47.47.21.47.47Z"/>
    <path class="cls-2" d="m9.31,161.65c0,.26-.21.47-.47.47s-.47-.21-.47-.47.21-.47.47-.47.47.21.47.47Z"/>
    <path class="cls-2" d="m128.07,31.08c0,.26-.21.47-.47.47s-.47-.21-.47-.47.21-.47.47-.47.47.21.47.47Z"/>
    <path class="cls-2" d="m112.26,57.79c0,.26-.21.47-.47.47s-.47-.21-.47-.47.21-.47.47-.47.47.21.47.47Z"/>
    <path class="cls-2" d="m73.65,86.23c0,.26-.21.47-.47.47s-.47-.21-.47-.47.21-.47.47-.47.47.21.47.47Z"/>
    <path class="cls-2" d="m87.12,164.18c0,.26-.21.47-.47.47s-.47-.21-.47-.47.21-.47.47-.47.47.21.47.47Z"/>
    <path class="cls-2" d="m203.9,161.95c0,.26-.21.47-.47.47s-.47-.21-.47-.47.21-.47.47-.47.47.21.47.47Z"/>
    <path class="cls-5" d="m260.99,78.15c0,.26-.21.47-.47.47s-.47-.21-.47-.47.21-.47.47-.47.47.21.47.47Z"/>
    <path class="cls-5" d="m222.56,57.59c0,.26-.21.47-.47.47s-.47-.21-.47-.47.21-.47.47-.47.47.21.47.47Z"/>
    <path class="cls-5" d="m26.66,35.37c0,.26-.21.47-.47.47s-.47-.21-.47-.47.21-.47.47-.47.47.21.47.47Z"/>
    <path class="cls-5" d="m189.74,91.2c0,.26-.21.47-.47.47s-.47-.21-.47-.47.21-.47.47-.47.47.21.47.47Z"/>
    <path class="cls-5" d="m237.37,107.01c0,.26-.21.47-.47.47s-.47-.21-.47-.47.21-.47.47-.47.47.21.47.47Z"/>
    <path class="cls-2" d="m258.37,72.27c0,.26-.21.47-.47.47s-.47-.21-.47-.47.21-.47.47-.47.47.21.47.47Z"/>
  </g>
</svg>